<?xml version="1.0" encoding="utf-8"?>
<!-- Generator: Adobe Illustrator 16.0.0, SVG Export Plug-In . SVG Version: 6.00 Build 0)  -->
<!DOCTYPE svg PUBLIC "-//W3C//DTD SVG 1.1//EN" "http://www.w3.org/Graphics/SVG/1.1/DTD/svg11.dtd">
<svg version="1.1" xmlns="http://www.w3.org/2000/svg" xmlns:xlink="http://www.w3.org/1999/xlink" x="0px" y="0px" width="50px"
	 height="50px" viewBox="0 0 50 50" enable-background="new 0 0 50 50" xml:space="preserve">
<g id="Layer_2" display="none">
	
		<rect x="5" y="5" display="inline" fill="none" stroke="#000000" stroke-width="0.25" stroke-linecap="round" stroke-linejoin="round" stroke-miterlimit="10" width="40" height="40"/>
</g>
<g id="Layer_1">
	<g>
		<path d="M46.344,44.219H3.636c-1.18,0-2.136,0.956-2.136,2.136c0,1.179,0.956,2.135,2.136,2.135h42.708
			c1.18,0,2.136-0.956,2.136-2.135C48.479,45.175,47.523,44.219,46.344,44.219z"/>
		<path d="M6.305,38.665c-1.18,0-2.136,0.956-2.136,2.136s0.956,2.136,2.136,2.136h37.37c1.179,0,2.135-0.956,2.135-2.136
			s-0.956-2.136-2.135-2.136h-0.534V19.446h0.534c0.59,0,1.067-0.478,1.067-1.067s-0.478-1.067-1.067-1.067H6.305
			c-0.59,0-1.067,0.478-1.067,1.067s0.478,1.067,1.067,1.067h0.534v19.219H6.305z M38.87,19.446v19.219h-6.406V19.446H38.87z
			 M28.192,19.446v19.219h-6.406V19.446H28.192z M11.109,19.446h6.406v19.219h-6.406V19.446z"/>
		<path d="M3.636,15.391h42.708c0.007,0,0.015,0,0.021,0c1.181,0,2.136-0.956,2.136-2.136c0-0.938-0.604-1.733-1.444-2.021
			l-21.19-9.535c-0.557-0.25-1.194-0.25-1.752,0L2.76,11.308c-0.919,0.414-1.424,1.412-1.212,2.396
			C1.759,14.688,2.629,15.391,3.636,15.391z"/>
	</g>
</g>
</svg>
