<?xml version="1.0" encoding="UTF-8" standalone="no"?>
<!-- Created with Inkscape (http://www.inkscape.org/) -->

<svg
   xmlns:dc="http://purl.org/dc/elements/1.1/"
   xmlns:cc="http://creativecommons.org/ns#"
   xmlns:rdf="http://www.w3.org/1999/02/22-rdf-syntax-ns#"
   xmlns:svg="http://www.w3.org/2000/svg"
   xmlns="http://www.w3.org/2000/svg"
   xmlns:sodipodi="http://sodipodi.sourceforge.net/DTD/sodipodi-0.dtd"
   xmlns:inkscape="http://www.inkscape.org/namespaces/inkscape"
   width="398.45465mm"
   height="89.993889mm"
   viewBox="0 0 1411.8472 318.87598"
   id="svg2"
   version="1.1"
   inkscape:version="0.91 r13725"
   sodipodi:docname="chiffres.svg">
  <defs
     id="defs4">
    <clipPath
       clipPathUnits="userSpaceOnUse"
       id="clipPath5301">
      <g
         clip-path="none"
         transform="matrix(0.2062064,0,0,0.2062064,-617.71168,765.47976)"
         id="g5303">
        <g
           id="g5305">
          <g
             id="g5307">
            <g
               id="g5309">
              <path
                 inkscape:connector-curvature="0"
                 d="m 118.505,115.332 6.938,0 c 10.544,0 19.091,-8.55 19.091,-19.091 l 0,-52.683 0,-19.706 c 0,-10.541 -8.547,-19.09 -19.091,-19.09 l -6.938,0 c -10.543,0 -19.09,8.549 -19.09,19.09 l 0,19.707 0,52.682 c 0,10.541 8.547,19.091 19.09,19.091 z"
                 id="path5311" />
              <path
                 inkscape:connector-curvature="0"
                 d="m 363.373,114.859 6.938,0 c 10.543,0 19.09,-8.549 19.09,-19.091 l 0,-57.21 0,-15.18 c 0,-10.54 -8.547,-19.089 -19.09,-19.089 l -6.938,0 c -10.545,0 -19.092,8.549 -19.092,19.089 l 0,15.18 0,57.209 c 0.002,10.543 8.549,19.092 19.092,19.092 z"
                 id="path5313" />
              <path
                 inkscape:connector-curvature="0"
                 d="m 453.916,43.558 -48.996,0 0,57.209 c 0,19.084 -15.525,29.61 -34.607,29.61 l -6.938,0 c -19.084,0 -34.609,-15.526 -34.609,-34.61 l 0,-52.209 -168.713,0 0,52.682 c 0,19.084 -15.525,34.61 -34.609,34.61 l -6.938,0 c -19.083,0 -34.608,-15.526 -34.608,-34.61 l 0,-52.682 -52.862,0 C 13.923,43.558 0,57.481 0,74.595 l 0,375.03 c 0,17.114 13.923,31.037 31.036,31.037 l 422.88,0 c 17.113,0 31.035,-13.923 31.035,-31.037 l 0,-375.03 C 484.953,57.482 471.029,43.558 453.916,43.558 Z m 0,406.067 -422.879,0 -10e-4,-283.213 422.886,0 0.016,283.212 c -0.002,0 -0.008,10e-4 -0.022,10e-4 z"
                 id="path5315" />
              <path
                 inkscape:connector-curvature="0"
                 d="m 258.498,261.41 55.727,0 c 2.209,0 4,-1.791 4,-4 l 0,-48.255 c 0,-2.209 -1.791,-4 -4,-4 l -55.727,0 c -2.209,0 -4,1.791 -4,4 l 0,48.255 c 0,2.209 1.791,4 4,4 z"
                 id="path5317" />
              <path
                 inkscape:connector-curvature="0"
                 d="m 349.443,261.41 55.727,0 c 2.209,0 4,-1.791 4,-4 l 0,-48.255 c 0,-2.209 -1.791,-4 -4,-4 l -55.727,0 c -2.209,0 -4,1.791 -4,4 l 0,48.255 c 0,2.209 1.791,4 4,4 z"
                 id="path5319" />
              <path
                 inkscape:connector-curvature="0"
                 d="m 76.611,340.41 55.726,0 c 2.209,0 4,-1.791 4,-4 l 0,-48.256 c 0,-2.209 -1.791,-4 -4,-4 l -55.726,0 c -2.209,0 -4,1.791 -4,4 l 0,48.256 c 0,2.209 1.791,4 4,4 z"
                 id="path5321" />
              <path
                 inkscape:connector-curvature="0"
                 d="m 167.555,340.41 55.726,0 c 2.209,0 4,-1.791 4,-4 l 0,-48.256 c 0,-2.209 -1.791,-4 -4,-4 l -55.726,0 c -2.209,0 -4,1.791 -4,4 l 0,48.256 c 0,2.209 1.791,4 4,4 z"
                 id="path5323" />
              <path
                 inkscape:connector-curvature="0"
                 d="m 258.499,340.41 55.726,0 c 2.209,0 4,-1.791 4,-4 l 0,-48.256 c 0,-2.209 -1.791,-4 -4,-4 l -55.726,0 c -2.209,0 -4,1.791 -4,4 l 0,48.256 c 0,2.209 1.791,4 4,4 z"
                 id="path5325" />
              <path
                 inkscape:connector-curvature="0"
                 d="m 349.443,340.41 55.727,0 c 2.209,0 4,-1.791 4,-4 l 0,-48.256 c 0,-2.209 -1.791,-4 -4,-4 l -55.727,0 c -2.209,0 -4,1.791 -4,4 l 0,48.256 c 0,2.209 1.791,4 4,4 z"
                 id="path5327" />
              <path
                 inkscape:connector-curvature="0"
                 d="m 132.337,363.154 -55.725,0 c -2.209,0 -4,1.791 -4,4 l 0,48.256 c 0,2.209 1.791,4 4,4 l 55.726,0 c 2.209,0 4,-1.791 4,-4 l 0,-48.256 c -0.001,-2.209 -1.792,-4 -4.001,-4 z"
                 id="path5329" />
              <path
                 inkscape:connector-curvature="0"
                 d="m 223.282,363.154 -55.726,0 c -2.209,0 -4,1.791 -4,4 l 0,48.256 c 0,2.209 1.791,4 4,4 l 55.726,0 c 2.209,0 4,-1.791 4,-4 l 0,-48.256 c 0,-2.209 -1.791,-4 -4,-4 z"
                 id="path5331" />
              <path
                 inkscape:connector-curvature="0"
                 d="m 314.227,363.154 -55.727,0 c -2.209,0 -4,1.791 -4,4 l 0,48.256 c 0,2.209 1.791,4 4,4 l 55.727,0 c 2.209,0 4,-1.791 4,-4 l 0,-48.256 c 0,-2.209 -1.791,-4 -4,-4 z"
                 id="path5333" />
              <path
                 inkscape:connector-curvature="0"
                 d="m 405.17,363.154 -55.727,0 c -2.209,0 -4,1.791 -4,4 l 0,48.256 c 0,2.209 1.791,4 4,4 l 55.727,0 c 2.209,0 4,-1.791 4,-4 l 0,-48.256 c 0,-2.209 -1.791,-4 -4,-4 z"
                 id="path5335" />
            </g>
          </g>
        </g>
        <g
           id="g5337" />
        <g
           id="g5339" />
        <g
           id="g5341" />
        <g
           id="g5343" />
        <g
           id="g5345" />
        <g
           id="g5347" />
        <g
           id="g5349" />
        <g
           id="g5351" />
        <g
           id="g5353" />
        <g
           id="g5355" />
        <g
           id="g5357" />
        <g
           id="g5359" />
        <g
           id="g5361" />
        <g
           id="g5363" />
        <g
           id="g5365" />
      </g>
    </clipPath>
  </defs>
  <sodipodi:namedview
     id="base"
     pagecolor="#3080ff"
     bordercolor="#666666"
     borderopacity="1.0"
     inkscape:pageopacity="0"
     inkscape:pageshadow="2"
     inkscape:zoom="0.55983942"
     inkscape:cx="730.61741"
     inkscape:cy="52.873193"
     inkscape:document-units="px"
     inkscape:current-layer="layer1"
     showgrid="false"
     fit-margin-top="2"
     fit-margin-left="2"
     fit-margin-right="2"
     fit-margin-bottom="2"
     inkscape:window-width="1280"
     inkscape:window-height="962"
     inkscape:window-x="-8"
     inkscape:window-y="-8"
     inkscape:window-maximized="1" />
  <metadata
     id="metadata7">
    <rdf:RDF>
      <cc:Work
         rdf:about="">
        <dc:format>image/svg+xml</dc:format>
        <dc:type
           rdf:resource="http://purl.org/dc/dcmitype/StillImage" />
        <dc:title></dc:title>
      </cc:Work>
    </rdf:RDF>
  </metadata>
  <g
     inkscape:label="Calque 1"
     inkscape:groupmode="layer"
     id="layer1"
     transform="translate(876.3378,-408.95889)">
    <g
       id="g5521"
       transform="translate(330.47912,-12.361281)">
      <circle
         clip-path="none"
         r="97.7743"
         cy="526.18109"
         cx="85.034737"
         id="path4520-4"
         style="opacity:1;fill:#ffffff;fill-opacity:1;stroke:#ffffff;stroke-width:0;stroke-miterlimit:4;stroke-dasharray:none;stroke-dashoffset:10;stroke-opacity:1" />
      <g
         transform="matrix(2.359905,0,0,2.359905,32.460079,473.60713)"
         id="g4284">
        <g
           id="g4238">
          <g
             id="g4240">
            <path
               inkscape:connector-curvature="0"
               d="M 42.313,20.889 22.592,1.166 C 21.815,0.389 20.797,0 19.779,0 18.761,0 17.742,0.389 16.966,1.166 l -10.8,10.798 c -1.554,1.554 -1.554,4.122 0,5.676 l 1.79,1.839 4.129,0 -3.854,-3.904 c -0.27,-0.271 -0.31,-0.61 -0.31,-0.774 0,-0.164 0.04,-0.491 0.31,-0.761 l 1.426,-1.382 6.777,6.821 6.501,0 L 12.907,9.401 19.03,3.254 c 0.27,-0.27 0.585,-0.321 0.749,-0.321 0.164,0 0.479,0.034 0.749,0.303 l 19.722,19.72 c 0.271,0.271 0.312,0.583 0.312,0.748 0,0.164 -0.07,0.478 -0.341,0.749 l -1.118,1.091 0,4.129 3.184,-3.155 c 1.553,-1.557 1.581,-4.075 0.026,-5.629 z"
               id="path4242" />
            <path
               inkscape:connector-curvature="0"
               d="m 33.06,21.328 -27.893,0 c -2.197,0 -4.076,1.77 -4.076,3.967 l 0,10.55 35.898,0 0,-10.55 c 0,-2.197 -1.732,-3.967 -3.929,-3.967 z M 10.839,32.253 c -0.779,0 -1.484,-0.31 -2.004,-0.81 -0.52,0.5 -1.226,0.81 -2.003,0.81 -1.598,0 -2.895,-1.295 -2.895,-2.896 0,-1.599 1.296,-2.895 2.895,-2.895 0.778,0 1.484,0.309 2.003,0.809 0.52,-0.5 1.225,-0.809 2.004,-0.809 1.599,0 2.895,1.296 2.895,2.895 0,1.601 -1.296,2.896 -2.895,2.896 z"
               id="path4244" />
            <path
               inkscape:connector-curvature="0"
               d="m 1.091,40.566 c 0,2.197 1.878,3.99 4.076,3.99 l 27.893,0 c 2.197,0 3.93,-1.793 3.93,-3.99 l 0,-0.234 -35.899,0 0,0.234 z"
               id="path4246" />
          </g>
        </g>
        <g
           id="g4248" />
        <g
           id="g4250" />
        <g
           id="g4252" />
        <g
           id="g4254" />
        <g
           id="g4256" />
        <g
           id="g4258" />
        <g
           id="g4260" />
        <g
           id="g4262" />
        <g
           id="g4264" />
        <g
           id="g4266" />
        <g
           id="g4268" />
        <g
           id="g4270" />
        <g
           id="g4272" />
        <g
           id="g4274" />
        <g
           id="g4276" />
      </g>
    </g>
    <g
       id="g5593"
       transform="translate(327.36776,-12.361281)">
      <circle
         clip-path="none"
         r="97.7743"
         cy="526.18109"
         cx="-505.34927"
         id="path4520-9"
         style="opacity:1;fill:#ffffff;fill-opacity:1;stroke:#ffffff;stroke-width:0;stroke-miterlimit:4;stroke-dasharray:none;stroke-dashoffset:10;stroke-opacity:1" />
      <g
         transform="matrix(0.17565018,0,0,0.17565018,-559.09823,472.43214)"
         id="g4347">
        <g
           id="g4307">
          <path
             inkscape:connector-curvature="0"
             d="m 459.887,56.471 -39.291,0 0,-36.826 C 420.596,8.801 411.795,0 400.951,0 L 211.052,0 c -10.845,0 -19.646,8.801 -19.646,19.645 l 0,36.828 -39.29,0 c -25.329,0 -45.839,20.522 -45.839,45.839 l 0,463.849 c 0,25.316 20.508,45.839 45.839,45.839 l 307.769,0 c 25.328,0 45.838,-20.522 45.838,-45.839 l 0,-463.851 C 505.725,77.008 485.215,56.471 459.887,56.471 Z m -101.498,45.839 0,-45.839 0,-17.18 22.92,0 0,17.183 0,45.839 0,43.376 -22.92,0 0,-43.379 z m -127.69,0 0,-45.839 0,-17.18 72.03,0 0,17.183 0,45.839 0,43.376 -72.03,0 0,-43.379 0,0 z m 12.009,455.916 c 0,10.856 -8.801,19.646 -19.646,19.646 l -31.654,0 c -10.845,0 -19.646,-8.789 -19.646,-19.646 l 0,-33.816 c 0,-10.856 8.801,-19.645 19.646,-19.645 l 31.654,0 c 10.845,0 19.646,8.788 19.646,19.645 l 0,33.816 0,0 z m 0,-98.775 c 0,10.856 -8.801,19.645 -19.646,19.645 l -31.654,0 c -10.845,0 -19.646,-8.788 -19.646,-19.645 l 0,-33.815 c 0,-10.856 8.801,-19.646 19.646,-19.646 l 31.654,0 c 10.845,0 19.646,8.789 19.646,19.646 l 0,33.815 0,0 z m 0,-98.761 c 0,10.856 -8.801,19.646 -19.646,19.646 l -31.654,0 c -10.845,0 -19.646,-8.789 -19.646,-19.646 l 0,-33.827 c 0,-10.857 8.801,-19.646 19.646,-19.646 l 31.654,0 c 10.845,0 19.646,8.788 19.646,19.646 l 0,33.827 0,0 z m 98.772,197.536 c 0,10.856 -8.801,19.646 -19.645,19.646 l -31.667,0 c -10.845,0 -19.645,-8.789 -19.645,-19.646 l 0,-33.816 c 0,-10.856 8.8,-19.645 19.645,-19.645 l 31.667,0 c 10.844,0 19.645,8.788 19.645,19.645 l 0,33.816 z m 0,-98.775 c 0,10.856 -8.801,19.645 -19.645,19.645 l -31.667,0 c -10.845,0 -19.645,-8.788 -19.645,-19.645 l 0,-33.815 c 0,-10.856 8.8,-19.646 19.645,-19.646 l 31.667,0 c 10.844,0 19.645,8.789 19.645,19.646 l 0,33.815 z m 0,-98.761 c 0,10.856 -8.801,19.646 -19.645,19.646 l -31.667,0 c -10.845,0 -19.645,-8.789 -19.645,-19.646 l 0,-33.827 c 0,-10.857 8.8,-19.646 19.645,-19.646 l 31.667,0 c 10.844,0 19.645,8.788 19.645,19.646 l 0,33.827 z m 98.764,197.536 c 0,10.856 -8.801,19.646 -19.646,19.646 l -31.654,0 c -10.844,0 -19.645,-8.789 -19.645,-19.646 l 0,-33.816 c 0,-10.856 8.801,-19.645 19.645,-19.645 l 31.654,0 c 10.846,0 19.646,8.788 19.646,19.645 l 0,33.816 z m 0,-98.775 c 0,10.856 -8.801,19.645 -19.646,19.645 l -31.654,0 c -10.844,0 -19.645,-8.788 -19.645,-19.645 l 0,-33.815 c 0,-10.856 8.801,-19.646 19.645,-19.646 l 31.654,0 c 10.846,0 19.646,8.789 19.646,19.646 l 0,33.815 z m 0,-98.761 c 0,10.856 -8.801,19.646 -19.646,19.646 l -31.654,0 c -10.844,0 -19.645,-8.789 -19.645,-19.646 l 0,-33.827 c 0,-10.857 8.801,-19.646 19.645,-19.646 l 31.654,0 c 10.846,0 19.646,8.788 19.646,19.646 l 0,33.827 z m 0,-114.711 c 0,18.531 -15.035,33.554 -33.566,33.554 l -201.359,0 c -18.531,0 -33.554,-15.023 -33.554,-33.554 l 0,-34.666 c 0,-18.546 15.023,-33.566 33.554,-33.566 l 201.358,0 c 18.531,0 33.566,15.023 33.566,33.566 l 0,34.666 z"
             id="path4309" />
        </g>
        <g
           id="g4311" />
        <g
           id="g4313" />
        <g
           id="g4315" />
        <g
           id="g4317" />
        <g
           id="g4319" />
        <g
           id="g4321" />
        <g
           id="g4323" />
        <g
           id="g4325" />
        <g
           id="g4327" />
        <g
           id="g4329" />
        <g
           id="g4331" />
        <g
           id="g4333" />
        <g
           id="g4335" />
        <g
           id="g4337" />
        <g
           id="g4339" />
      </g>
    </g>
    <g
       id="g5545"
       transform="translate(-378.21985,-12.361281)">
      <circle
         clip-path="none"
         r="97.7743"
         cy="526.18109"
         cx="-96.509346"
         id="path4520-7"
         style="opacity:1;fill:#ffffff;fill-opacity:1;stroke:#ffffff;stroke-width:0;stroke-miterlimit:4;stroke-dasharray:none;stroke-dashoffset:10;stroke-opacity:1" />
      <g
         transform="matrix(0.27482512,0,0,0.27482512,-146.50941,476.18107)"
         id="g4419">
        <g
           id="g4367">
          <path
             inkscape:connector-curvature="0"
             style="fill:#010002"
             d="m 92.723,274.945 c -3.178,3.178 -5.747,9.388 -5.747,13.875 l 0,58.444 33.929,0 0,-92.373 c 0,-4.487 -2.569,-5.56 -5.747,-2.382 l -22.435,22.436 z"
             id="path4369" />
          <path
             inkscape:connector-curvature="0"
             style="fill:#010002"
             d="m 241.752,219.573 c -3.17,3.178 -5.747,9.389 -5.747,13.884 l 0,113.816 33.929,0 0,-147.786 c 0,-4.487 -2.569,-5.552 -5.747,-2.374 l -22.435,22.46 z"
             id="path4371" />
          <path
             inkscape:connector-curvature="0"
             style="fill:#010002"
             d="m 291.418,169.834 c -3.178,3.17 -5.755,9.38 -5.755,13.867 l 0,163.563 31.547,0 0,-195.052 c 0,-4.487 -2.577,-5.56 -5.755,-2.382 l -20.037,20.004 z"
             id="path4373" />
          <path
             inkscape:connector-curvature="0"
             style="fill:#010002"
             d="m 193.078,268.239 c 0,0 -1.512,1.52 -3.381,3.39 -1.861,1.87 -3.373,7.031 -3.373,11.518 l 0,64.118 33.929,0 0,-98.047 c 0,-4.487 -2.577,-5.56 -5.755,-2.382 l -21.42,21.403 z"
             id="path4375" />
          <path
             inkscape:connector-curvature="0"
             style="fill:#010002"
             d="m 142.405,250.998 c -3.178,-3.17 -5.755,-2.105 -5.755,2.382 l 0,93.885 33.929,0 0,-60.03 c 0,-4.487 -2.439,-10.559 -5.454,-13.558 l -5.454,-5.43 -17.266,-17.249 z"
             id="path4377" />
          <path
             inkscape:connector-curvature="0"
             style="fill:#010002"
             d="m 50.023,317.669 -10.957,10.974 c -3.17,3.178 -5.739,8.633 -5.739,12.193 l 0,6.438 37.871,0 0,-42.684 c 0,-4.487 -2.569,-5.552 -5.747,-2.374 l -15.428,15.453 z"
             id="path4379" />
          <path
             inkscape:connector-curvature="0"
             style="fill:#010002"
             d="m 358.121,150.724 c 3.17,3.178 5.747,2.105 5.747,-2.382 l 0,-116.149 c 0,-8.316 -7.966,-15.599 -16.233,-15.599 l -115.475,0 c -4.487,0 -5.56,2.577 -2.382,5.755 l 41.074,41.106 -16.753,16.68 -77.701,77.774 L 135.3,116.82 c -3.178,-3.178 -8.316,-3.17 -11.494,0 L 9.519,231.189 C -3.178,243.894 -3.17,264.484 9.527,277.18 l 0.797,0.805 c 12.697,12.697 33.287,12.697 45.975,-0.008 l 73.247,-73.287 41.098,41.057 c 3.178,3.17 8.324,3.17 11.502,0 l 135.479,-135.503 40.496,40.48 z"
             id="path4381" />
        </g>
        <g
           id="g4383" />
        <g
           id="g4385" />
        <g
           id="g4387" />
        <g
           id="g4389" />
        <g
           id="g4391" />
        <g
           id="g4393" />
        <g
           id="g4395" />
        <g
           id="g4397" />
        <g
           id="g4399" />
        <g
           id="g4401" />
        <g
           id="g4403" />
        <g
           id="g4405" />
        <g
           id="g4407" />
        <g
           id="g4409" />
        <g
           id="g4411" />
      </g>
    </g>
    <g
       id="g5572"
       transform="translate(422.02615,-12.361281)">
      <circle
         clip-path="none"
         r="97.7743"
         cy="526.18109"
         cx="-303.25998"
         id="path4520-3"
         style="opacity:1;fill:#ffffff;fill-opacity:1;stroke:#ffffff;stroke-width:0;stroke-miterlimit:4;stroke-dasharray:none;stroke-dashoffset:10;stroke-opacity:1" />
      <g
         transform="matrix(0.2163617,0,0,0.2163617,-353.25997,476.18105)"
         id="g4485">
        <g
           id="g4445">
          <path
             inkscape:connector-curvature="0"
             d="m 428.328,118.851 -8.407,0 31.039,-31.043 c 9.979,-9.978 9.979,-26.142 0,-36.118 -9.972,-9.978 -26.142,-9.978 -36.116,0 l -48.395,48.396 c -1.164,-0.106 -2.288,-0.353 -3.48,-0.353 -14.512,0 -27.141,7.669 -34.32,19.117 l -197.474,0 c -7.181,-11.448 -19.82,-19.117 -34.321,-19.117 -1.193,0 -2.32,0.247 -3.48,0.353 L 44.98,51.69 c -9.976,-9.978 -26.145,-9.978 -36.115,0 -9.979,9.976 -9.979,26.14 0,36.118 l 31.037,31.043 -6.041,0 C 15.158,118.851 0,134.014 0,152.705 l 0,23.705 c 0,17.661 13.584,32 30.843,33.552 l 25.409,168.726 c 0,21.696 17.591,39.295 39.292,39.295 l 271.101,0 c 21.702,0 39.289,-17.599 39.289,-39.295 l 25.414,-168.726 c 17.259,-1.552 30.841,-15.891 30.841,-33.552 l 0,-23.705 c 0.005,-18.691 -15.16,-33.854 -33.861,-33.854 z m -271.382,259.826 -60.631,0 -8.64,-66.32 69.271,0 0,66.32 z m 0,-92.116 -73.197,0 -7.863,-66.328 81.061,0 0,66.328 z m 105.015,92.116 -61.417,0 0,-66.325 61.417,0 0,66.325 z m 0,-92.116 -61.417,0 0,-66.321 61.417,0 0,66.321 z m 96.96,92.116 -48.446,0 0,-66.325 60.227,0 -11.781,66.325 z m 16.907,-92.116 -65.353,0 0,-66.321 77.139,0 -11.786,66.321 z"
             id="path4447" />
        </g>
        <g
           id="g4449" />
        <g
           id="g4451" />
        <g
           id="g4453" />
        <g
           id="g4455" />
        <g
           id="g4457" />
        <g
           id="g4459" />
        <g
           id="g4461" />
        <g
           id="g4463" />
        <g
           id="g4465" />
        <g
           id="g4467" />
        <g
           id="g4469" />
        <g
           id="g4471" />
        <g
           id="g4473" />
        <g
           id="g4475" />
        <g
           id="g4477" />
      </g>
    </g>
    <g
       id="g5614"
       transform="translate(-79.011307,-12.361281)">
      <circle
         clip-path="none"
         r="97.7743"
         cy="526.18109"
         cx="-692.46558"
         id="path4520"
         style="opacity:1;fill:#ffffff;fill-opacity:1;stroke:#ffffff;stroke-width:0;stroke-miterlimit:4;stroke-dasharray:none;stroke-dashoffset:10;stroke-opacity:1" />
      <g
         id="g4954"
         transform="matrix(0.2062064,0,0,0.2062064,-742.46558,476.1811)"
         clip-path="none">
        <g
           id="g4956">
          <g
             id="g4958">
            <g
               id="g4960">
              <path
                 id="path4962"
                 d="m 118.505,115.332 6.938,0 c 10.544,0 19.091,-8.55 19.091,-19.091 l 0,-52.683 0,-19.706 c 0,-10.541 -8.547,-19.09 -19.091,-19.09 l -6.938,0 c -10.543,0 -19.09,8.549 -19.09,19.09 l 0,19.707 0,52.682 c 0,10.541 8.547,19.091 19.09,19.091 z"
                 inkscape:connector-curvature="0" />
              <path
                 id="path4964"
                 d="m 363.373,114.859 6.938,0 c 10.543,0 19.09,-8.549 19.09,-19.091 l 0,-57.21 0,-15.18 c 0,-10.54 -8.547,-19.089 -19.09,-19.089 l -6.938,0 c -10.545,0 -19.092,8.549 -19.092,19.089 l 0,15.18 0,57.209 c 0.002,10.543 8.549,19.092 19.092,19.092 z"
                 inkscape:connector-curvature="0" />
              <path
                 id="path4966"
                 d="m 453.916,43.558 -48.996,0 0,57.209 c 0,19.084 -15.525,29.61 -34.607,29.61 l -6.938,0 c -19.084,0 -34.609,-15.526 -34.609,-34.61 l 0,-52.209 -168.713,0 0,52.682 c 0,19.084 -15.525,34.61 -34.609,34.61 l -6.938,0 c -19.083,0 -34.608,-15.526 -34.608,-34.61 l 0,-52.682 -52.862,0 C 13.923,43.558 0,57.481 0,74.595 l 0,375.03 c 0,17.114 13.923,31.037 31.036,31.037 l 422.88,0 c 17.113,0 31.035,-13.923 31.035,-31.037 l 0,-375.03 C 484.953,57.482 471.029,43.558 453.916,43.558 Z m 0,406.067 -422.879,0 -10e-4,-283.213 422.886,0 0.016,283.212 c -0.002,0 -0.008,10e-4 -0.022,10e-4 z"
                 inkscape:connector-curvature="0" />
              <path
                 id="path4968"
                 d="m 258.498,261.41 55.727,0 c 2.209,0 4,-1.791 4,-4 l 0,-48.255 c 0,-2.209 -1.791,-4 -4,-4 l -55.727,0 c -2.209,0 -4,1.791 -4,4 l 0,48.255 c 0,2.209 1.791,4 4,4 z"
                 inkscape:connector-curvature="0" />
              <path
                 id="path4970"
                 d="m 349.443,261.41 55.727,0 c 2.209,0 4,-1.791 4,-4 l 0,-48.255 c 0,-2.209 -1.791,-4 -4,-4 l -55.727,0 c -2.209,0 -4,1.791 -4,4 l 0,48.255 c 0,2.209 1.791,4 4,4 z"
                 inkscape:connector-curvature="0" />
              <path
                 id="path4972"
                 d="m 76.611,340.41 55.726,0 c 2.209,0 4,-1.791 4,-4 l 0,-48.256 c 0,-2.209 -1.791,-4 -4,-4 l -55.726,0 c -2.209,0 -4,1.791 -4,4 l 0,48.256 c 0,2.209 1.791,4 4,4 z"
                 inkscape:connector-curvature="0" />
              <path
                 id="path4974"
                 d="m 167.555,340.41 55.726,0 c 2.209,0 4,-1.791 4,-4 l 0,-48.256 c 0,-2.209 -1.791,-4 -4,-4 l -55.726,0 c -2.209,0 -4,1.791 -4,4 l 0,48.256 c 0,2.209 1.791,4 4,4 z"
                 inkscape:connector-curvature="0" />
              <path
                 id="path4976"
                 d="m 258.499,340.41 55.726,0 c 2.209,0 4,-1.791 4,-4 l 0,-48.256 c 0,-2.209 -1.791,-4 -4,-4 l -55.726,0 c -2.209,0 -4,1.791 -4,4 l 0,48.256 c 0,2.209 1.791,4 4,4 z"
                 inkscape:connector-curvature="0" />
              <path
                 id="path4978"
                 d="m 349.443,340.41 55.727,0 c 2.209,0 4,-1.791 4,-4 l 0,-48.256 c 0,-2.209 -1.791,-4 -4,-4 l -55.727,0 c -2.209,0 -4,1.791 -4,4 l 0,48.256 c 0,2.209 1.791,4 4,4 z"
                 inkscape:connector-curvature="0" />
              <path
                 id="path4980"
                 d="m 132.337,363.154 -55.725,0 c -2.209,0 -4,1.791 -4,4 l 0,48.256 c 0,2.209 1.791,4 4,4 l 55.726,0 c 2.209,0 4,-1.791 4,-4 l 0,-48.256 c -0.001,-2.209 -1.792,-4 -4.001,-4 z"
                 inkscape:connector-curvature="0" />
              <path
                 id="path4982"
                 d="m 223.282,363.154 -55.726,0 c -2.209,0 -4,1.791 -4,4 l 0,48.256 c 0,2.209 1.791,4 4,4 l 55.726,0 c 2.209,0 4,-1.791 4,-4 l 0,-48.256 c 0,-2.209 -1.791,-4 -4,-4 z"
                 inkscape:connector-curvature="0" />
              <path
                 id="path4984"
                 d="m 314.227,363.154 -55.727,0 c -2.209,0 -4,1.791 -4,4 l 0,48.256 c 0,2.209 1.791,4 4,4 l 55.727,0 c 2.209,0 4,-1.791 4,-4 l 0,-48.256 c 0,-2.209 -1.791,-4 -4,-4 z"
                 inkscape:connector-curvature="0" />
              <path
                 id="path4986"
                 d="m 405.17,363.154 -55.727,0 c -2.209,0 -4,1.791 -4,4 l 0,48.256 c 0,2.209 1.791,4 4,4 l 55.727,0 c 2.209,0 4,-1.791 4,-4 l 0,-48.256 c 0,-2.209 -1.791,-4 -4,-4 z"
                 inkscape:connector-curvature="0" />
            </g>
          </g>
        </g>
        <g
           id="g4988" />
        <g
           id="g4990" />
        <g
           id="g4992" />
        <g
           id="g4994" />
        <g
           id="g4996" />
        <g
           id="g4998" />
        <g
           id="g5000" />
        <g
           id="g5002" />
        <g
           id="g5004" />
        <g
           id="g5006" />
        <g
           id="g5008" />
        <g
           id="g5010" />
        <g
           id="g5012" />
        <g
           id="g5014" />
        <g
           id="g5016" />
      </g>
    </g>
    <text
       xml:space="preserve"
       style="font-style:normal;font-weight:normal;font-size:46.1302681px;line-height:125%;font-family:sans-serif;letter-spacing:0px;word-spacing:0px;fill:#000000;fill-opacity:1;stroke:none;stroke-width:1px;stroke-linecap:butt;stroke-linejoin:miter;stroke-opacity:1"
       x="-476.31644"
       y="682.15289"
       id="text5659"
       sodipodi:linespacing="125%"><tspan
         sodipodi:role="line"
         id="tspan5661"
         x="-476.31644"
         y="682.15289"
         style="text-align:center;text-anchor:middle;fill:#ffffff"><tspan
           style="font-style:normal;font-variant:normal;font-weight:bold;font-stretch:normal;font-family:sans-serif;-inkscape-font-specification:'sans-serif Bold'"
           id="tspan5790">49</tspan><tspan
           style="font-size:25px;line-height:124.00000095%"
           id="tspan5665"> millions</tspan></tspan><tspan
         sodipodi:role="line"
         x="-476.31644"
         y="717.966"
         id="tspan5663"
         style="font-size:25px;text-align:center;text-anchor:middle;fill:#ffffff">d'€ de CA</tspan></text>
    <text
       xml:space="preserve"
       style="font-style:normal;font-weight:normal;font-size:46.1302681px;line-height:125%;font-family:sans-serif;letter-spacing:0px;word-spacing:0px;fill:#000000;fill-opacity:1;stroke:none;stroke-width:1px;stroke-linecap:butt;stroke-linejoin:miter;stroke-opacity:1"
       x="-177.71906"
       y="679.82745"
       id="text5659-1"
       sodipodi:linespacing="125%"><tspan
         sodipodi:role="line"
         id="tspan5661-7"
         x="-177.71906"
         y="679.82745"
         style="font-style:normal;font-variant:normal;font-weight:bold;font-stretch:normal;font-family:sans-serif;-inkscape-font-specification:'sans-serif Bold';text-align:center;text-anchor:middle;fill:#ffffff">1 500 000</tspan><tspan
         sodipodi:role="line"
         x="-177.71906"
         y="715.64056"
         id="tspan5663-3"
         style="font-size:25px;text-align:center;text-anchor:middle;fill:#ffffff">terminaux de paiement</tspan></text>
    <text
       xml:space="preserve"
       style="font-style:normal;font-weight:normal;font-size:46.1302681px;line-height:125%;font-family:sans-serif;letter-spacing:0px;word-spacing:0px;fill:#000000;fill-opacity:1;stroke:none;stroke-width:1px;stroke-linecap:butt;stroke-linejoin:miter;stroke-opacity:1"
       x="118.06427"
       y="679.77161"
       id="text5659-1-2"
       sodipodi:linespacing="125%"><tspan
         sodipodi:role="line"
         id="tspan5661-7-7"
         x="118.06428"
         y="679.77161"
         style="font-style:normal;font-variant:normal;font-weight:bold;font-stretch:normal;font-family:sans-serif;-inkscape-font-specification:'sans-serif Bold';text-align:center;text-anchor:middle;fill:#ffffff">25 000</tspan><tspan
         sodipodi:role="line"
         x="118.06427"
         y="715.58472"
         id="tspan5663-3-8"
         style="font-size:25px;text-align:center;text-anchor:middle;fill:#ffffff">e-commerçants</tspan></text>
    <text
       xml:space="preserve"
       style="font-style:normal;font-weight:normal;font-size:46.1302681px;line-height:125%;font-family:sans-serif;letter-spacing:0px;word-spacing:0px;fill:#000000;fill-opacity:1;stroke:none;stroke-width:1px;stroke-linecap:butt;stroke-linejoin:miter;stroke-opacity:1"
       x="415.935"
       y="679.5459"
       id="text5659-3"
       sodipodi:linespacing="125%"><tspan
         sodipodi:role="line"
         id="tspan5661-4"
         x="415.935"
         y="679.5459"
         style="text-align:center;text-anchor:middle;fill:#ffffff"><tspan
           style="font-style:normal;font-variant:normal;font-weight:bold;font-stretch:normal;font-family:sans-serif;-inkscape-font-specification:'sans-serif Bold'"
           id="tspan5792">5</tspan><tspan
           style="font-size:25px;line-height:124.00000095%"
           id="tspan5665-7"> milliards</tspan></tspan><tspan
         sodipodi:role="line"
         x="415.935"
         y="715.35901"
         id="tspan5663-0"
         style="font-size:25px;text-align:center;text-anchor:middle;fill:#ffffff">de paiements / an</tspan></text>
    <text
       xml:space="preserve"
       style="font-style:normal;font-weight:normal;font-size:46.1302681px;line-height:125%;font-family:sans-serif;letter-spacing:0px;word-spacing:0px;fill:#000000;fill-opacity:1;stroke:none;stroke-width:1px;stroke-linecap:butt;stroke-linejoin:miter;stroke-opacity:1"
       x="-771.5257"
       y="679.83875"
       id="text5659-6"
       sodipodi:linespacing="125%"><tspan
         sodipodi:role="line"
         id="tspan5661-9"
         x="-771.5257"
         y="679.83875"
         style="text-align:center;text-anchor:middle;fill:#ffffff"><tspan
           style="font-style:normal;font-variant:normal;font-weight:bold;font-stretch:normal;font-family:sans-serif;-inkscape-font-specification:'sans-serif Bold'"
           id="tspan5788">13</tspan><tspan
           style="font-size:25px;line-height:124.00000095%"
           id="tspan5665-3"> ans</tspan></tspan><tspan
         sodipodi:role="line"
         x="-771.5257"
         y="715.65186"
         id="tspan5663-09"
         style="font-size:25px;text-align:center;text-anchor:middle;fill:#ffffff">d'expérience</tspan></text>
  </g>
</svg>
