<?xml version="1.0" encoding="utf-8"?>
<!-- Generator: Adobe Illustrator 18.1.1, SVG Export Plug-In . SVG Version: 6.00 Build 0)  -->
                    <svg class="fragment roll-in" width="640" height="480" xmlns="http://www.w3.org/2000/svg" xmlns:xlink="http://www.w3.org/1999/xlink">
                        <!-- Created with SVG-edit - http://svg-edit.googlecode.com/ -->
                        <defs>
                            <svg viewBox="0 0 1000 1000" height="1000px" width="1000px" y="0px" x="0px" id="svg_1" xmlns:xlink="http://www.w3.org/1999/xlink">
                                <g>
                                    <path d="m603,485.600006c-10.299988,-10.299988 -23.400024,-19 -39.099976,-25.899994c-14.600037,-6.399994 -30.5,-9.600006 -45.800049,-12.700012c-19.999969,-4 -39.099976,-7.899994 -51.599976,-18.299988c-1.799988,-1.5 -3.5,-3.200012 -5,-5c-5,-6 -7.399994,-13.700012 -7.399994,-23.300018c0,-9.699982 2.899994,-17.5 9.100006,-24.5c4.899994,-5.5 12.199982,-9.699982 20.399994,-12.099976c4.700012,-1.300018 9.600006,-2 14.700012,-2c12.899994,0 24.399994,4.5 31.399994,12.299988c5.200012,5.799988 8.899963,15.399994 10.799988,27.899994c1.200012,8.200012 8.299988,14.100006 16.400024,14.100006c0.799988,0 1.599976,-0.100006 2.5,-0.200012l53.299988,-8c9,-1.299988 15.200012,-9.699982 14,-18.699982l0,0c-4.600037,-32.5 -18.5,-58.600006 -41.299988,-77.600006c-11.700012,-9.700012 -26.400024,-17.200012 -42.900024,-22.100006v-25.799988c0,-9.199997 -7.400024,-16.600006 -16.599976,-16.600006h-42.100037h-11.899994c-9.199982,0 -16.600006,7.400009 -16.600006,16.600006v25.399994c-18.199982,5.100006 -34.099976,13.399994 -46.599976,24.299988c-26.300018,23 -39.700012,53.400024 -39.700012,90.200012c0,10.399994 1.200012,20.299988 3.5,29.700012c2.299988,9.399994 5.700012,18.199982 10.200012,26.5c9.299988,17 22.699982,30.5 39.899994,40.099976c24.299988,13.600006 47.899994,19.600006 73.899994,25.399994c17.200012,3.900024 36.099976,9.5 45.900024,21.400024c4.5,5.599976 6.899963,13.799988 6.899963,24.299988c0,13.099976 -3.599976,23.700012 -11.099976,32.200012c-7,8 -17.200012,13.299988 -28.700012,15.099976c-2.699982,0.400024 -5.600006,0.600037 -8.399994,0.600037c-16.399994,0 -31.700012,-6.900024 -40.700012,-18.600037c-4.199982,-5.399963 -10,-16.899963 -13.399994,-41c-1.199982,-8.299988 -8.299988,-14.200012 -16.399994,-14.200012c-0.899994,0 -1.899994,0.100037 -2.899994,0.200012l-52.100006,9.100037c-8.399994,1.5 -14.299988,9 -13.700012,17.5c1.800018,25.699951 8.700012,48.099976 20.300018,66.399963c11.799988,18.600037 26.299988,32.400024 43,41c9.5,4.900024 19.600006,8.799988 30.299988,11.700012v21.400024c0,9.199951 7.399994,16.599976 16.600006,16.599976h54.000031c9.199951,0 16.599976,-7.400024 16.599976,-16.599976v-20.400024c23.099976,-6.400024 43.299988,-18.200012 58.799988,-34.5c22.700012,-23.900024 34.200012,-53.799988 34.200012,-89.099976c0,-16.100037 -2.799988,-31.400024 -8.299988,-45.400024c-5.800049,-14.299988 -13.900024,-26.899994 -24.400024,-37.399994z" />
                                    <g>
                                        <g>
                                            <path d="m901.799988,257.799988l39.400024,-37.600006c13.899963,-13.299988 8.199951,-36.699997 -10.200012,-42.099991l-227.900024,-66.800003c-18.5,-5.400002 -35.899963,11.199997 -31.299988,29.899994l56,230.700012c4.5,18.699982 27.600037,25.5 41.600037,12.199982l32.699951,-31.199982c12,31 19.800049,63.599976 23.300049,97.5c6.5,62.199982 -2.300049,125.399994 -25.600037,182.999969c-19.599976,48.5 -49.400024,92.900024 -86.799988,129.700012c-9.400024,9.299988 -10.100037,24.299988 -1.400024,34.299988l52.5,60.5c9.400024,10.799988 25.900024,11.5 36.299988,1.600037c51.800049,-49.900024 93,-110.700012 120,-177.200012c31.300049,-77.200012 43.100037,-162 34.400024,-245.399994c-6.700012,-63.299988 -24.5,-123.299988 -53,-179.100006z" />
                                        </g>
                                        <path d="m95.199997,718.900024l-39.400002,37.599976c-13.899998,13.300049 -8.200001,36.700012 10.199997,42.100037l227.900002,66.799988c18.5,5.400024 35.899994,-11.200012 31.299988,-29.900024l-56,-230.699951c-4.5,-18.700012 -27.599991,-25.5 -41.599991,-12.200012l-32.699997,31.200012c-12,-31 -19.800003,-63.600037 -23.300003,-97.5c-6.5,-62.200012 2.300003,-125.400024 25.600006,-183.000031c19.599991,-48.5 49.399994,-92.899994 86.800003,-129.699982c9.399994,-9.300003 10.100006,-24.300003 1.399994,-34.300003l-52.5,-60.5c-9.399994,-10.800003 -25.899994,-11.5 -36.300003,-1.599998c-51.800003,49.900002 -93,110.699989 -120,177.199989c-31.299995,77.200012 -43.099995,162 -34.399998,245.400024c6.700008,63.299927 24.500004,123.299927 53.000004,179.099976z" />
                                    </g>
                                </g>
                            </svg>
                            <svg id="svg_4" viewBox="0 0 50 50" height="50px" width="50px" y="0px" x="0px" xmlns:xlink="http://www.w3.org/1999/xlink">
                                <g display="none" id="Layer_2">
                                    <rect height="40" width="40" stroke-miterlimit="10" stroke-linejoin="round" stroke-linecap="round" stroke-width="0.25" stroke="#000000" fill="none" y="5" x="5" />
                                </g>
                                <g id="Layer_1">
                                    <g>
                                        <path d="m46.344002,44.219002h-42.708002c-1.18,0 -2.136,0.956001 -2.136,2.136002c0,1.178997 0.956,2.134998 2.136,2.134998h42.708002c1.179996,0 2.135998,-0.956001 2.135998,-2.134998c-0.000999,-1.180004 -0.957001,-2.136002 -2.135998,-2.136002z" />
                                        <path d="m6.305,38.665001c-1.18,0 -2.136,0.955997 -2.136,2.135998s0.956,2.136002 2.136,2.136002h37.369999c1.179001,0 2.135002,-0.956001 2.135002,-2.136002s-0.956001,-2.135998 -2.135002,-2.135998h-0.534v-19.219002h0.534c0.59,0 1.067001,-0.477999 1.067001,-1.066999s-0.478001,-1.066999 -1.067001,-1.066999h-37.369999c-0.59,0 -1.067,0.478001 -1.067,1.066999s0.478,1.066999 1.067,1.066999h0.534v19.219002h-0.534l0,0zm32.564999,-19.219002v19.219002h-6.405998v-19.219002h6.405998l0,0zm-10.677999,0v19.219002h-6.406v-19.219002h6.406l0,0zm-17.082999,0h6.405999v19.219002h-6.405999v-19.219002l0,0z" />
                                        <path d="m3.636,15.391h42.708002c0.007,0 0.014999,0 0.021,0c1.181,0 2.135998,-0.955999 2.135998,-2.136c0,-0.938 -0.604,-1.733 -1.444,-2.021l-21.190001,-9.535c-0.556999,-0.25 -1.194,-0.25 -1.751999,0l-21.355,9.608999c-0.919,0.414001 -1.424,1.412001 -1.212,2.396001c0.211,0.983999 1.081,1.686999 2.088,1.686999z" />
                                    </g>
                                </g>
                            </svg>
                            <svg viewBox="0 0 512 512" height="512px" width="512px" y="0px" x="0px" id="svg_6" xmlns:xlink="http://www.w3.org/1999/xlink">
                                <path d="m31.969,256c10.344,0 20.469,-5 26.656,-14.25l6.875,-10.313004c3.438004,13.969009 15.469002,24.563004 30.5,24.563004c17.688004,0 32,-14.313004 32,-32c0,17.688004 14.313004,32 32,32s32,-14.313004 32,-32c0,17.688004 14.313004,32 32,32s32,-14.313004 32,-32c0,17.688004 14.312988,32 32,32s32,-14.313004 32,-32c0,17.688004 14.312988,32 32,32s32,-14.313004 32,-32c0,17.688004 14.312988,32 32,32c15.062988,0 27.062988,-10.593994 30.5,-24.563004l6.875,10.313004c6.156006,9.25 16.312988,14.25 26.656006,14.25c6.093994,0 12.25,-1.75 17.718994,-5.375c14.718994,-9.813004 18.687988,-29.688004 8.875,-44.375l-58.625,-78.25h-128v-32h32c17.687988,0 32,-14.313004 32,-32v-32c0,-17.688 -14.312988,-32 -32,-32h-192c-17.688004,0 -32,14.313 -32,32v32c0,17.688004 14.313004,32 32,32h32v32h-128l-58.625,78.25c-9.813,14.688004 -5.813,34.563004 8.875,44.375c5.438,3.625 11.625,5.375 17.719,5.375zm280.031,-232h40v24h-32v16h-8v-40l0,0zm-56,0h40v40h-40v-40l0,0zm-48,0h8v16h16v-16h8v40h-8v-16h-16v16h-8v-40l0,0zm-48,40v-8h24v-8h-24v-24h32v8h-24v8h24v24h-32l0,0zm64,32h64v32h-64v-32l0,0zm288,416h-512c0,-26.5 21.5,-48 48,-48h416c26.5,0 48,21.5 48,48zm-416,-240h-32v144v32h384v-32v-144h-32h-320l0,0zm0,144v-112h96v112h-96l0,0zm128,0v-112h192v112h-192l0,0zm-80,-64c0,8.843994 -7.156006,16 -16,16s-16,-7.156006 -16,-16s7.155998,-16 16,-16s16,7.156006 16,16zm200,-312h-24v-8h24v8l0,0zm-80,-8h24v24h-24v-24l0,0z" />
                            </svg>
                            <svg id="svg_8" viewBox="0 0 24 24" height="24px" width="24px" y="0px" x="0px" xmlns:xlink="http://www.w3.org/1999/xlink">
                                <g id="Layer_1">
                                    <g>
                                        <path d="m20.756001,5.345c-0.191,-0.219 -0.466,-0.345 -0.756001,-0.345h-13.819l-0.195,-1.164c-0.08,-0.482 -0.497,-0.836 -0.986,-0.836h-2.25c-0.553,0 -1,0.447 -1,1s0.447,1 1,1h1.403l1.86,11.164c0.008,0.045 0.031,0.082001 0.045,0.124001c0.016,0.052999 0.029,0.103001 0.054,0.150999c0.032,0.066 0.075,0.122002 0.12,0.179001c0.031,0.039 0.059,0.077999 0.095,0.112c0.058,0.054001 0.125,0.092001 0.193,0.130001c0.038,0.021 0.071,0.049 0.112,0.064999c0.116,0.047001 0.238,0.075001 0.367,0.075001c0.001,0 11.001,0 11.001,0c0.552999,0 1,-0.447001 1,-1s-0.447001,-1 -1,-1h-10.153l-0.166,-1h11.319c0.497999,0 0.92,-0.366 0.99,-0.858l1,-7c0.041,-0.288 -0.045,-0.579 -0.233999,-0.797zm-1.909,1.655l-0.285,2h-3.562v-2h3.847l0,0zm-4.847,0v2h-3v-2h3l0,0zm0,3v2h-3v-2h3l0,0zm-4,-3v2h-3c-0.053,0 -0.101,0.015 -0.148,0.03l-0.338,-2.03h3.486l0,0zm-2.986,3h2.986v2h-2.653l-0.333,-2zm7.986,2v-2h3.417999l-0.285,2h-3.132999l0,0z" />
                                        <circle r="1.5" cy="19.5" cx="8.5" />
                                        <circle r="1.5" cy="19.5" cx="17.5" />
                                    </g>
                                </g>
                                <g display="none" id="nyt_x5F_exporter_x5F_info" />
                            </svg>
                        </defs>
                        <g>
                            <title>Calque 1</title>
                            <use fill="#ffffff" x="1501.50002" y="1011.650013" transform="matrix(0.1599999964237213,0,0,0.1599999964237213,0,0) " id="svg_2" xlink:href="#svg_1" />
                            <use fill="#ffffff" x="143.749998" y="95.937499" transform="matrix(3.200000047683716,0,0,3.200000047683716,0,0) " id="svg_5" xlink:href="#svg_4" />
                            <use fill="#ffffff" x="102.4" y="966.937598" transform="matrix(0.3125,0,0,0.3125,0,0) " id="svg_7" xlink:href="#svg_6" />
                            <use fill="#ffffff" x="36.609499" y="-0.6" transform="matrix(6.666666507720947,0,0,6.666666507720947,0,0) " id="svg_9" xlink:href="#svg_8" />
                        </g>
                    </svg>
