<?xml version="1.0" encoding="UTF-8" standalone="no"?>
<svg
   xmlns:dc="http://purl.org/dc/elements/1.1/"
   xmlns:cc="http://creativecommons.org/ns#"
   xmlns:rdf="http://www.w3.org/1999/02/22-rdf-syntax-ns#"
   xmlns:svg="http://www.w3.org/2000/svg"
   xmlns="http://www.w3.org/2000/svg"
   xmlns:sodipodi="http://sodipodi.sourceforge.net/DTD/sodipodi-0.dtd"
   xmlns:inkscape="http://www.inkscape.org/namespaces/inkscape"
   width="194.0575pt"
   height="91.438065pt"
   viewBox="0 0 194.05749 91.438064"
   version="1.1"
   id="svg2"
   inkscape:version="0.91 r13725"
   sodipodi:docname="payzen-logo-grey.svg">
  <metadata
     id="metadata83">
    <rdf:RDF>
      <cc:Work
         rdf:about="">
        <dc:format>image/svg+xml</dc:format>
        <dc:type
           rdf:resource="http://purl.org/dc/dcmitype/StillImage" />
        <dc:title></dc:title>
      </cc:Work>
    </rdf:RDF>
  </metadata>
  <defs
     id="defs81">
    <filter
       style="color-interpolation-filters:sRGB"
       inkscape:label="Greyscale"
       id="filter4211">
      <feColorMatrix
         values="0.21 0.72 0.072 0 0 0.21 0.72 0.072 0 0 0.21 0.72 0.072 0 0 0 0 0 1 0 "
         id="feColorMatrix4213" />
    </filter>
    <filter
       style="color-interpolation-filters:sRGB"
       inkscape:label="Greyscale"
       id="filter4215">
      <feColorMatrix
         values="0.21 0.72 0.072 0 0 0.21 0.72 0.072 0 0 0.21 0.72 0.072 0 0 0 0 0 1 0 "
         id="feColorMatrix4217" />
    </filter>
    <filter
       style="color-interpolation-filters:sRGB"
       inkscape:label="Greyscale"
       id="filter4219">
      <feColorMatrix
         values="0.21 0.72 0.072 0 0 0.21 0.72 0.072 0 0 0.21 0.72 0.072 0 0 0 0 0 1 0 "
         id="feColorMatrix4221" />
    </filter>
    <filter
       style="color-interpolation-filters:sRGB"
       inkscape:label="Greyscale"
       id="filter4223">
      <feColorMatrix
         values="0.21 0.72 0.072 0 0 0.21 0.72 0.072 0 0 0.21 0.72 0.072 0 0 0 0 0 1 0 "
         id="feColorMatrix4225" />
    </filter>
  </defs>
  <sodipodi:namedview
     pagecolor="#58af79"
     bordercolor="#666666"
     borderopacity="1"
     objecttolerance="10"
     gridtolerance="10"
     guidetolerance="10"
     inkscape:pageopacity="0"
     inkscape:pageshadow="2"
     inkscape:window-width="1280"
     inkscape:window-height="1002"
     id="namedview79"
     showgrid="false"
     fit-margin-left="2"
     fit-margin-top="2"
     fit-margin-bottom="2"
     fit-margin-right="2"
     inkscape:zoom="1.2945455"
     inkscape:cx="179.82253"
     inkscape:cy="-6.0807894"
     inkscape:window-x="1272"
     inkscape:window-y="-8"
     inkscape:window-maximized="1"
     inkscape:current-layer="svg2" />
  <g
     id="#ffffffff"
     transform="translate(208.99209,73.046939)"
     style="filter:url(#filter4215)">
    <text
       xml:space="preserve"
       style="font-style:normal;font-weight:normal;font-size:22.0309391px;line-height:125%;font-family:sans-serif;letter-spacing:0px;word-spacing:0px;fill:#ffffff;fill-opacity:1;stroke:none;stroke-width:1px;stroke-linecap:butt;stroke-linejoin:miter;stroke-opacity:1"
       x="-192.98219"
       y="10.359129"
       id="text4153"
       sodipodi:linespacing="125%"><tspan
         sodipodi:role="line"
         id="tspan4155"
         x="-192.98219"
         y="10.359129"
         style="font-size:24.00000191px">by Lyra Network</tspan></text>
    <flowRoot
       xml:space="preserve"
       id="flowRoot4157"
       style="font-style:normal;font-weight:normal;font-size:40px;line-height:125%;font-family:sans-serif;letter-spacing:0px;word-spacing:0px;fill:#000000;fill-opacity:1;stroke:none;stroke-width:1px;stroke-linecap:butt;stroke-linejoin:miter;stroke-opacity:1"
       transform="matrix(0.80000008,0,0,0.8,-199.3921,-73.046939)"><flowRegion
         id="flowRegion4159"><rect
           id="rect4161"
           width="359.19943"
           height="197.75281"
           x="-47.120785"
           y="-41.741745" /></flowRegion><flowPara
         id="flowPara4163"></flowPara></flowRoot>  </g>
  <g
     id="g4171"
     transform="translate(5.0988077,0)">
    <g
       style="filter:url(#filter4219)"
       transform="translate(-0.21466165,-5.4362123)"
       id="#a3c643ff">
      <path
         style="opacity:1;fill:#a3c643"
         inkscape:connector-curvature="0"
         id="path8"
         d="m 92.85,12.01 c 31.67,-0.24 63.35,-0.13 95.02,-0.05 0.16,17.21 0.2,34.42 0.1,51.62 -31.19,0.07 -62.39,-0.14 -93.57,0.11 -0.45,-0.01 -1.35,-0.02 -1.8,-0.02 0.54,-17.21 0.05,-34.44 0.25,-51.66 m 10.5,14.83 c 5.85,0 11.7,-0.02 17.54,-0.01 -7.03,7.35 -14.84,13.91 -21.99,21.14 -1.69,1.86 -1.55,4.58 -2.16,6.88 9.63,-0.09 19.25,-0.04 28.88,-0.03 0.45,-2.07 0.89,-4.13 1.32,-6.2 -6.38,-0.15 -12.77,-0.01 -19.15,-0.06 7.08,-7.18 14.69,-13.83 21.84,-20.94 1.71,-1.85 1.67,-4.6 2.34,-6.91 -9.07,-0.21 -18.14,-0.03 -27.21,-0.1 -0.47,2.08 -0.94,4.16 -1.41,6.23 m 28.27,23.57 c 2.94,5.63 10.43,6.17 15.83,4.31 3.49,-1.19 5.56,-4.43 7.14,-7.55 -2.21,-0.05 -4.42,-0.07 -6.63,-0.09 -1.83,1.93 -4.02,4.21 -6.98,3.35 -3.18,-0.24 -3.99,-3.52 -4.08,-6.14 6.17,-0.01 12.35,-0.06 18.52,0.05 0.29,-3.48 0.81,-7.35 -1.33,-10.38 -2.74,-4.26 -8.47,-5.15 -13.09,-4.19 -8.56,2.06 -12.93,12.91 -9.38,20.64 m 30.55,-20.14 c -1.69,8.17 -3.45,16.34 -5.11,24.52 2.27,0.01 4.54,0.01 6.81,0.02 1.12,-4.6 1.86,-9.29 3.05,-13.87 0.64,-3.01 2.98,-5.69 6.09,-6.24 1.79,-0.26 4.21,1.21 3.73,3.28 -0.73,5.68 -2.22,11.23 -3.39,16.83 2.36,-0.01 4.71,-0.03 7.07,-0.1 1.03,-6.28 2.85,-12.41 3.66,-18.73 0.34,-3.45 -2.61,-6.61 -6.08,-6.51 -3.65,-0.53 -7.05,1.19 -9.69,3.58 0.08,-0.72 0.24,-2.15 0.32,-2.87 -2.15,0.03 -4.31,0.07 -6.46,0.09 z" />
    </g>
    <path
       style="opacity:1;fill:#ffffff;filter:url(#filter4215)"
       inkscape:connector-curvature="0"
       id="path14"
       d="m -190.42675,-57.913151 c 5.27,0.06 10.54,-0.01 15.82,0.03 4.63,-0.1 9.68,2.57 10.97,7.27 1.29,4.31 0.42,9.75 -3.46,12.49 -4.54,3.52 -10.6,2.01 -15.9,2.32 0,4.01 -0.05,8.03 0.08,12.05 -2.4,0.47 -4.85,0.52 -7.28,0.53 -1,-3.71 0.2,-7.51 -0.45,-11.26 0.25,-1.66 0.19,-3.35 0,-5.02 0.29,-3.65 0.34,-7.33 0,-10.98 0.25,-2.47 0.23,-4.95 0.22,-7.43 m 7.4,5.98 c 0.04,3.37 0.03,6.74 0,10.1 3.22,-0.02 6.46,0.25 9.64,-0.29 3.37,-1.39 4.1,-6.46 1.17,-8.67 -3.22,-1.97 -7.24,-0.87 -10.81,-1.14 z"
       transform="translate(199.39209,73.046939)" />
    <path
       style="opacity:1;fill:#ffffff;filter:url(#filter4215)"
       inkscape:connector-curvature="0"
       id="path16"
       d="m -96.256754,-51.643151 c 0.47,-2.07 0.94,-4.15 1.41,-6.23 9.07,0.07 18.14,-0.11 27.21,0.1 -0.67,2.31 -0.63,5.06 -2.34,6.91 -7.15,7.11 -14.76,13.76 -21.84,20.94 6.38,0.05 12.77,-0.09 19.15,0.06 -0.43,2.07 -0.87,4.13 -1.32,6.2 -9.63,-0.01 -19.25,-0.06 -28.879996,0.03 0.61,-2.3 0.47,-5.02 2.16,-6.88 7.149996,-7.23 14.959996,-13.79 21.989996,-21.14 -5.84,-0.01 -11.69,0.01 -17.54,0.01 z"
       transform="translate(199.39209,73.046939)" />
    <path
       style="opacity:1;fill:#ffffff;filter:url(#filter4215)"
       inkscape:connector-curvature="0"
       id="path18"
       d="m -156.06675,-46.963151 c 3.96,-2.75 9.01,-2.04 13.53,-1.8 2.02,1.05 4.59,1.97 5.38,4.31 0.83,6.91 -0.67,14 1.04,20.82 -2.36,-0.7 -6.71,1.57 -7.44,-1.75 -3.89,2.61 -9.3,3.63 -13.52,1.24 -4.48,-2.5 -4.37,-10.15 0.34,-12.35 3.96,-1.96 8.54,-1.41 12.68,-2.79 0.14,-1.45 0.47,-3.05 -0.43,-4.35 -3.07,-1.39 -7.61,-1.12 -8.34,2.85 -2.27,0.03 -4.54,0.03 -6.81,-0.03 0.37,-2.43 1.39,-4.83 3.57,-6.15 m 2.99,14.87 c -1.86,3.88 3.65,6.06 6.46,4.21 3.12,-1.09 2.77,-4.72 2.92,-7.38 -3.09,1.01 -7.25,0.32 -9.38,3.17 z"
       transform="translate(199.39209,73.046939)" />
    <path
       style="opacity:1;fill:#ffffff;filter:url(#filter4215)"
       inkscape:connector-curvature="0"
       id="path20"
       d="m -134.48675,-48.213151 c 2.48,-0.03 4.96,-0.03 7.43,-0.03 1.81,5.38 3.59,10.77 5.36,16.16 2.85,-4.94 3.55,-10.9 5.69,-16.19 2.36,0.03 4.71,0.07 7.07,0.14 -3.77,9.64 -7.07,19.48 -10.89,29.1 -2.03,4.89 -7.98,4.36 -12.32,4.04 0.03,-2.01 0.05,-4.01 0.1,-6.01 0.9,0.24 2.7,0.71 3.6,0.95 1.47,-0.67 2.6,-1.81 3.38,-3.22 -3.08,-8.33 -6.17,-16.66 -9.42,-24.94 z"
       transform="translate(199.39209,73.046939)" />
    <path
       style="opacity:1;fill:#ffffff;filter:url(#filter4215)"
       inkscape:connector-curvature="0"
       id="path22"
       d="m -67.986754,-28.073151 c -3.55,-7.73 0.82,-18.58 9.38,-20.64 4.62,-0.96 10.35,-0.07 13.09,4.19 2.14,3.03 1.62,6.9 1.33,10.38 -6.17,-0.11 -12.35,-0.06 -18.52,-0.05 0.09,2.62 0.9,5.9 4.08,6.14 2.96,0.86 5.15,-1.42 6.98,-3.35 2.21,0.02 4.42,0.04 6.63,0.09 -1.58,3.12 -3.65,6.36 -7.14,7.55 -5.4,1.86 -12.89,1.32 -15.83,-4.31 m 6.11,-10.73 c 3.81,0.07 7.61,0.05 11.42,0.06 -0.23,-2.38 -1.24,-5.39 -4.2,-5.19 -3.42,-0.44 -5.84,2.38 -7.22,5.13 z"
       transform="translate(199.39209,73.046939)" />
    <path
       style="opacity:1;fill:#ffffff;filter:url(#filter4215)"
       inkscape:connector-curvature="0"
       id="path24"
       d="m -37.436754,-48.213151 c 2.15,-0.02 4.31,-0.06 6.46,-0.09 -0.08,0.72 -0.24,2.15 -0.32,2.87 2.64,-2.39 6.04,-4.11 9.69,-3.58 3.47,-0.1 6.42,3.06 6.08,6.51 -0.81,6.32 -2.63,12.45 -3.66,18.73 -2.36,0.07 -4.71,0.09 -7.07,0.1 1.17,-5.6 2.66,-11.15 3.39,-16.83 0.48,-2.07 -1.94,-3.54 -3.73,-3.28 -3.11,0.55 -5.45,3.23 -6.09,6.24 -1.19,4.58 -1.93,9.27 -3.05,13.87 -2.27,-0.01 -4.54,-0.01 -6.81,-0.02 1.66,-8.18 3.42,-16.35 5.11,-24.52 z"
       transform="translate(199.39209,73.046939)" />
    <g
       style="filter:url(#filter4211)"
       transform="translate(-0.21466165,-5.4362123)"
       id="#9dc236ff">
      <path
         style="opacity:1;fill:#9dc236"
         inkscape:connector-curvature="0"
         id="path33"
         d="m 137.73,39.68 c 1.38,-2.75 3.8,-5.57 7.22,-5.13 2.96,-0.2 3.97,2.81 4.2,5.19 -3.81,-0.01 -7.61,0.01 -11.42,-0.06 z" />
    </g>
  </g>
</svg>
