<?xml version="1.0" encoding="utf-8"?>
<!-- Generator: Adobe Illustrator 16.0.0, SVG Export Plug-In . SVG Version: 6.00 Build 0)  -->
<!DOCTYPE svg PUBLIC "-//W3C//DTD SVG 1.1//EN" "http://www.w3.org/Graphics/SVG/1.1/DTD/svg11.dtd">
<svg version="1.1" id="Layer_1" xmlns="http://www.w3.org/2000/svg" xmlns:xlink="http://www.w3.org/1999/xlink" x="0px" y="0px"
	 width="126px" height="126px" viewBox="0 0 126 126" enable-background="new 0 0 126 126" xml:space="preserve" opacity="0.5">
<path d="M74.458,107.909c0.143,0.009,0.287,0.022,0.434,0.022h33c3.859,0,7-3.141,7-7v-76.5c0-3.859-3.141-7-7-7h-33
	c-0.146,0-0.291,0.013-0.434,0.021V8.32l-64.41,8.596v91.586l64.41,8.818V107.909z M74.458,21.474
	c0.143-0.021,0.285-0.043,0.434-0.043h33c1.654,0,3,1.346,3,3v76.5c0,1.654-1.346,3-3,3h-33c-0.148,0-0.291-0.023-0.434-0.045
	V21.474z M20.446,69.362c-2.176-0.058-4.301-0.719-5.355-1.38l0.857-3.787c1.143,0.653,2.912,1.32,4.754,1.352
	c2.002,0.034,3.07-0.841,3.07-2.197c0-1.293-0.924-2.039-3.24-2.941c-3.16-1.195-5.191-3.068-5.191-6.025
	c0-3.47,2.678-6.195,7.191-6.314c2.195-0.059,3.828,0.395,5.002,0.926l-0.998,3.84c-0.791-0.393-2.186-0.956-4.09-0.924
	c-1.887,0.031-2.793,0.962-2.793,2.029c0,1.311,1.078,1.883,3.57,2.881c3.457,1.35,5.105,3.279,5.105,6.24
	C28.329,66.581,25.774,69.503,20.446,69.362z M49.438,73.61c-3.115-1.021-5.678-2.041-8.521-3.349
	c-0.471-0.205-0.973-0.314-1.471-0.36c-4.688-0.442-8.975-4.062-8.975-10.953c0-6.327,3.859-11.19,10.068-11.354
	c6.559-0.173,10.242,4.859,10.242,10.907c0,5.03-2.322,8.536-5.199,9.778v0.13c1.676,0.527,3.563,0.966,5.299,1.37L49.438,73.61z
	 M68.634,70.305l-14.531-0.376V47.601l5.17-0.133v18.303l9.361,0.152V70.305z"/>
<path d="M40.415,51.479c-3.234,0.056-5.076,3.319-5.076,7.313c-0.033,4.057,1.873,7.196,5.043,7.252
	c3.252,0.057,5.17-3.061,5.17-7.347C45.552,54.704,43.698,51.423,40.415,51.479z"/>
<path d="M90.89,80.964c7.762,0,13.836-2.773,13.836-6.313v-3.984c0-0.566-0.164-1.141-0.494-1.705l-0.014-0.022
	c0.322-0.542,0.508-1.112,0.508-1.707V63.25c0-0.567-0.164-1.142-0.494-1.707l-0.043-0.072c0.342-0.558,0.537-1.146,0.537-1.761
	v-3.983c0-0.539-0.15-1.088-0.447-1.631l-0.035-0.063c0.088-0.242,0.15-0.49,0.15-0.753c0-3.219-6.957-4.957-13.504-4.957
	c-6.541,0-13.496,1.738-13.496,4.957c0,0.263,0.061,0.512,0.15,0.754l-0.035,0.063c-0.299,0.543-0.447,1.092-0.447,1.631v3.983
	c0,0.613,0.193,1.202,0.535,1.759l-0.045,0.076c-0.326,0.566-0.49,1.139-0.49,1.705v3.983c0,0.594,0.182,1.163,0.506,1.705
	l-0.016,0.025c-0.326,0.565-0.49,1.14-0.49,1.704v3.984C77.062,78.191,83.136,80.964,90.89,80.964z M78.542,56.394
	c2.219,1.881,7.365,2.855,12.348,2.855c4.99,0,10.133-0.975,12.354-2.856v3.316c0,2.285-5.07,4.831-12.354,4.831
	c-7.277,0-12.348-2.546-12.348-4.831V56.394z M78.542,63.486c2.271,2.079,6.943,3.407,12.348,3.407
	c5.412,0,10.084-1.328,12.354-3.409v3.749c0,2.285-5.07,4.832-12.354,4.832c-7.277,0-12.348-2.547-12.348-4.832V63.486z
	 M78.542,70.904c2.271,2.08,6.943,3.408,12.348,3.408c5.412,0,10.084-1.328,12.354-3.409v3.749c0,2.285-5.07,4.831-12.354,4.831
	c-7.277,0-12.348-2.546-12.348-4.831V70.904z"/>
</svg>
