<?xml version="1.0" encoding="utf-8"?>
<!-- Generator: Adobe Illustrator 16.0.0, SVG Export Plug-In . SVG Version: 6.00 Build 0)  -->
<!DOCTYPE svg PUBLIC "-//W3C//DTD SVG 1.1//EN" "http://www.w3.org/Graphics/SVG/1.1/DTD/svg11.dtd">
<svg version="1.1" id="Layer_1" xmlns="http://www.w3.org/2000/svg" xmlns:xlink="http://www.w3.org/1999/xlink" x="0px" y="0px"
	 width="50px" height="50px" viewBox="0 0 50 50" enable-background="new 0 0 50 50" xml:space="preserve">
<g>
	<path d="M25.512,13.16v1.627c0.059,0,0.115-0.013,0.174,0l10.608,2.121c0.482,0.096,0.795,0.566,0.699,1.048
		c-0.085,0.424-0.457,0.716-0.873,0.716c-0.056,0-0.116-0.007-0.175-0.018l-10.433-2.086v0.985c0.047,0,0.094-0.012,0.143-0.004
		l10.607,1.728c0.486,0.079,0.816,0.536,0.736,1.021c-0.071,0.437-0.448,0.748-0.878,0.748c-0.047,0-0.095-0.004-0.144-0.012
		l-10.465-1.705v0.785c0.043-0.001,0.085-0.014,0.128-0.008l10.607,1.543c0.486,0.07,0.823,0.523,0.754,1.009
		c-0.065,0.443-0.445,0.762-0.881,0.762c-0.042,0-0.084-0.003-0.129-0.009l-10.479-1.524v0.897c0.035-0.001,0.068-0.014,0.104-0.01
		l10.609,1.246c0.489,0.058,0.837,0.5,0.781,0.989c-0.054,0.452-0.438,0.786-0.885,0.786c-0.034,0-0.068-0.003-0.104-0.006
		l-10.505-1.233v12.345h11.87V15.534L25.512,13.16z M35.402,28.591c-0.408,0-0.742-0.333-0.742-0.742s0.334-0.742,0.742-0.742
		c0.41,0,0.742,0.333,0.742,0.742S35.812,28.591,35.402,28.591z"/>
	<path d="M15.423,25.72c0.216-0.011,0.433-0.019,0.648-0.019c2.799,0,5.811,0.954,5.811,3.048v7.369c0,0.282-0.059,0.54-0.159,0.781
		h3.196V13.16l-9.496,4.748V25.72z"/>
	<path d="M16.071,33.354c-2.543,0-4.605-0.824-4.605-1.842v1.842c0,1.018,2.062,1.842,4.605,1.842s4.605-0.825,4.605-1.842v-1.842
		C20.676,32.53,18.614,33.354,16.071,33.354z"/>
	<path d="M16.071,36.118c-2.543,0-4.605-0.825-4.605-1.842v1.842c0,1.018,2.062,1.842,4.605,1.842s4.605-0.824,4.605-1.842v-1.842
		C20.676,35.293,18.614,36.118,16.071,36.118z"/>
	<path d="M16.071,26.907c-2.543,0-4.605,0.824-4.605,1.842v1.842c0,1.019,2.062,1.842,4.605,1.842s4.605-0.823,4.605-1.842v-1.842
		C20.676,27.731,18.614,26.907,16.071,26.907z M16.071,30.131c-2.531,0-4.145-0.818-4.145-1.382c0-0.563,1.614-1.381,4.145-1.381
		c2.53,0,4.144,0.818,4.144,1.381C20.215,29.312,18.601,30.131,16.071,30.131z"/>
</g>
</svg>
